<svg id="Layer_1" data-name="Layer 1" xmlns="http://www.w3.org/2000/svg" xmlns:xlink="http://www.w3.org/1999/xlink" width="304.0491" height="37.4766" viewBox="0 0 304.0491 37.4766"><defs><style>.cls-1,.cls-2,.cls-3{isolation:isolate;}.cls-1{fill:url(#radial-gradient);}.cls-2{fill:url(#radial-gradient-2);}.cls-3{fill:url(#radial-gradient-3);}.cls-4{fill:#bf8f20;}.cls-5{fill:#004486;}</style><radialGradient id="radial-gradient" cx="28.152" cy="14.1474" r="14.6587" gradientUnits="userSpaceOnUse"><stop offset="0" stop-color="#004588"/><stop offset="0.9962" stop-color="#002558"/></radialGradient><radialGradient id="radial-gradient-2" cx="28.1326" cy="33.7277" r="18.4406" xlink:href="#radial-gradient"/><radialGradient id="radial-gradient-3" cx="28.1423" cy="25.2103" r="19.0029" gradientUnits="userSpaceOnUse"><stop offset="0" stop-color="#d1aa63"/><stop offset="1" stop-color="#bd8d19"/></radialGradient></defs><title>logo_web_final</title><path class="cls-1" d="M28.1326,1.0712,44.2383,17.1769l-.213.1935c-6.659,2.381-10.3757,5.6331-15.8733,9.8531-5.517-4.22-9.2143-7.4721-15.8734-9.8531l-.2129-.2129L28.1326,1.0712Z" transform="translate(-2.503 -1.0712)"/><path class="cls-2" d="M2.503,28.9077v1.22c10.0467.2129,18.1769,3.736,25.63,8.4206,7.4528-4.6846,15.583-8.2077,25.63-8.4206V28.9077a71.29,71.29,0,0,0-25.63,5.5556,70.48,70.48,0,0,0-25.63-5.5556Z" transform="translate(-2.503 -1.0712)"/><path class="cls-3" d="M53.7816,17.1575C40.057,21.4356,35.8757,23.1,28.152,29.0238,20.4089,23.1,16.2276,21.4162,2.503,17.1575v8.4206c13.5117,2.71,17.8285,3.8522,25.63,7.685,7.8206-3.8328,12.118-4.9749,25.63-7.685V17.1575Z" transform="translate(-2.503 -1.0712)"/><path class="cls-4" d="M68.8441,28.0783a2.3745,2.3745,0,0,1-1.146,2.1061,5.7008,5.7008,0,0,1-3.1282.7433c-.3716,0-1.084-.0155-2.1525-.0465.062-1.4557.0929-3.0662.0929-4.8161,0-1.657-.0309-3.0972-.0929-4.3515h5.9l-.0464,1.053c-1.688-.0619-3.2521-.0774-4.7077-.0774.0155.7433.0309,1.7034.0309,2.88.4336-.0155.8208-.031,1.177-.031a7.3685,7.3685,0,0,1,2.679.3871,2.1463,2.1463,0,0,1,1.3938,2.1526Zm-1.1925.1239c0-1.1615-1.022-1.7345-3.0662-1.7345a9.2545,9.2545,0,0,0-.9911.0465c0,1.2544.031,2.3693.0775,3.36a4.5076,4.5076,0,0,0,.9446.062,4.8052,4.8052,0,0,0,2.3693-.4181,1.4586,1.4586,0,0,0,.6659-1.3163Zm8.9818-.9447a4.3237,4.3237,0,0,1-.8672,2.6636,2.8774,2.8774,0,0,1-2.4158,1.146,2.2853,2.2853,0,0,1-1.7034-.4646H71.57q0,1.9512.0464,3.4843H70.2842c.1084-1.2544.17-2.7875.17-4.63a30.096,30.096,0,0,0-.3562-5.25l1.2389-.17.1084.6968h.0774a2.7732,2.7732,0,0,1,2.2145-.79,2.5544,2.5544,0,0,1,2.1215.9756,3.6957,3.6957,0,0,1,.7743,2.3383Zm-1.2543.17a2.9635,2.9635,0,0,0-.542-1.7809,1.82,1.82,0,0,0-1.5486-.7433,2.0364,2.0364,0,0,0-1.8119.7743c.0775,1.5795.1085,2.9268.1085,4.0573a2.228,2.228,0,0,0,1.4866.48,1.9915,1.9915,0,0,0,1.7344-.8207,3.345,3.345,0,0,0,.573-1.9667Zm9.307-.1084a3.7405,3.7405,0,0,1-1.0376,2.8184,3.41,3.41,0,0,1-2.4312,1.0066,3.1093,3.1093,0,0,1-2.2455-.8982,3.34,3.34,0,0,1-.9446-2.5242,3.7775,3.7775,0,0,1,1.0375-2.8339,3.3719,3.3719,0,0,1,2.4468-1.0221,3.1091,3.1091,0,0,1,2.2454.8982,3.4527,3.4527,0,0,1,.9292,2.5552Zm-1.2234.2477a3.5063,3.5063,0,0,0-.5575-1.9512,1.9057,1.9057,0,0,0-3.1436-.0464,3.3272,3.3272,0,0,0-.542,1.8738,3.4347,3.4347,0,0,0,.5575,1.9512,1.891,1.891,0,0,0,3.1281.0464,3.1128,3.1128,0,0,0,.5575-1.8738ZM91.98,30.8657H90.71c-.031-.0619-.0929-.1858-.17-.3716a5.7073,5.7073,0,0,0-.96-2.0442,1.7015,1.7015,0,0,0-1.3472-.5729c-.1859,0-.4491,0-.7434.0155,0,1.084.031,2.0751.1084,2.9578H86.3431c.0619-.9447.1084-2.0132.1084-3.2211a19.374,19.374,0,0,0-.2478-3.4224l1.3937-.1858c-.0619.8982-.0929,1.9047-.0929,2.9888.2788.0154.5265.0154.7433.0154,1.0376,0,1.7809-.8517,2.199-2.54a1.0385,1.0385,0,0,1,.1549-.3252h1.1614c-.0464.1084-.1239.31-.2477.6039-.542,1.4712-1.13,2.3384-1.7964,2.5861v.062a2.0789,2.0789,0,0,1,1.115.8207,7.6463,7.6463,0,0,1,.8672,1.8429,3.2107,3.2107,0,0,0,.2787.79Zm7.139-4.1192c0,.2013-.0155.4646-.031.8207l-4.8315.0775a2.5525,2.5525,0,0,0,.79,1.7189,2.6358,2.6358,0,0,0,1.92.6969,7.5035,7.5035,0,0,0,1.9977-.2633l-.1239.9911a5.5965,5.5965,0,0,1-1.9977.2788,3.6765,3.6765,0,0,1-2.7875-1.0066,3.391,3.391,0,0,1-.96-2.4313,4.1371,4.1371,0,0,1,.8827-2.6481,2.8369,2.8369,0,0,1,2.3539-1.115,2.5523,2.5523,0,0,1,2.06.8053,2.9294,2.9294,0,0,1,.7278,2.0751Zm-1.1769,0c0-1.3163-.5575-1.9822-1.657-1.9822-1.13,0-1.7964.6814-1.9977,2.06l3.6547-.0774Zm9.1831.511a4.3237,4.3237,0,0,1-.8672,2.6636,2.8775,2.8775,0,0,1-2.4158,1.146,2.2853,2.2853,0,0,1-1.7034-.4646h-.062q0,1.9512.0465,3.4843h-1.3318c.1084-1.2544.17-2.7875.17-4.63a30.1077,30.1077,0,0,0-.3561-5.25l1.2388-.17.1084.6968h.0775a2.7731,2.7731,0,0,1,2.2144-.79,2.5546,2.5546,0,0,1,2.1216.9756,3.6848,3.6848,0,0,1,.7588,2.3383Zm-1.2543.17a2.9641,2.9641,0,0,0-.542-1.7809,1.82,1.82,0,0,0-1.5486-.7433,2.0363,2.0363,0,0,0-1.8119.7743c.0775,1.5795.1084,2.9268.1084,4.0573a2.2285,2.2285,0,0,0,1.4867.48,1.9916,1.9916,0,0,0,1.7344-.8207,3.3457,3.3457,0,0,0,.573-1.9667Zm8.6411,3.4378h-1.2544c.062-.8052.1084-1.8738.1084-3.221,0-.3872.031-.9447.062-1.7035h-.062a12.824,12.824,0,0,1-1.92,2.5552,8.143,8.143,0,0,0-1.688,2.3693h-1.0066c.062-.9446.093-2.0131.093-3.221a19.3836,19.3836,0,0,0-.2478-3.4224l1.3937-.1858c-.0619.8672-.0929,1.9667-.0929,3.3139,0,.48-.0155,1.0686-.0465,1.7964h.062a16.1269,16.1269,0,0,1,1.92-2.5552,7.5909,7.5909,0,0,0,1.6415-2.3848l1.0066-.1858c-.0619.9756-.0774,2.1835-.0774,3.6082.0155,1.1459.0464,2.23.1084,3.2365Zm10.7627,0H124.02c.0619-.8052.1084-1.8738.1084-3.221,0-.3872.031-.9447.0619-1.7035h-.0619a12.824,12.824,0,0,1-1.92,2.5552,8.143,8.143,0,0,0-1.688,2.3693h-1.0066c.062-.9446.0929-2.0131.0929-3.221a19.3846,19.3846,0,0,0-.2477-3.4224l1.3937-.1858c-.062.8672-.0929,1.9667-.0929,3.3139,0,.48-.0155,1.0686-.0465,1.7964h.062a16.1269,16.1269,0,0,1,1.92-2.5552,7.5909,7.5909,0,0,0,1.6415-2.3848l1.0066-.1858c-.062.9756-.0774,2.1835-.0774,3.6082,0,1.1459.0309,2.23.1084,3.2365Zm10.2826,0-1.115.0465a2.4763,2.4763,0,0,1-.0775-.65h-.0774a3.3544,3.3544,0,0,1-2.3538.79,2.09,2.09,0,0,1-1.3938-.48,1.66,1.66,0,0,1-.5884-1.3627,2.08,2.08,0,0,1,.9137-1.75,6.5,6.5,0,0,1,3.4068-.6968,2.9852,2.9852,0,0,0,.0155-.3872,1.2847,1.2847,0,0,0-.4646-1.1614,2.7461,2.7461,0,0,0-1.3937-.2942,8.4961,8.4961,0,0,0-2.168.2787l.1239-.9756a8.8306,8.8306,0,0,1,2.4313-.31,3.1659,3.1659,0,0,1,1.9357.511,2.0848,2.0848,0,0,1,.6814,1.7654c0,.2168-.0155.6194-.031,1.2079-.0155.573-.031.96-.031,1.1614a10.39,10.39,0,0,0,.1859,2.3074Zm-1.2544-1.3627c-.0155-.7124-.031-1.3628-.031-1.92a7.4385,7.4385,0,0,0-2.0131.2013,1.3709,1.3709,0,0,0-1.1615,1.3473c0,.6349.4491.96,1.3473.96a2.8128,2.8128,0,0,0,1.8583-.5884Zm7.4642-5.3117-.0465,1.084c-.8207-.0774-1.9512-.1238-3.4068-.1238.0309.9446.0309,1.7808.0309,2.5087,0,1.13.031,2.199.0929,3.221h-1.2543c.0774-.9446.1084-2.0131.1084-3.221,0-1.3628-.031-2.5087-.1084-3.4689Zm6.8293,2.5552c0,.2013-.0155.4646-.031.8207l-4.8316.0775a2.5526,2.5526,0,0,0,.79,1.7189,2.6356,2.6356,0,0,0,1.92.6969,7.5024,7.5024,0,0,0,1.9977-.2633l-.1239.9911a5.5965,5.5965,0,0,1-1.9977.2788,3.6763,3.6763,0,0,1-2.7874-1.0066,3.391,3.391,0,0,1-.96-2.4313,4.1376,4.1376,0,0,1,.8826-2.6481,2.8369,2.8369,0,0,1,2.3539-1.115,2.5521,2.5521,0,0,1,2.06.8053,2.929,2.929,0,0,1,.7279,2.0751Zm-1.1615,0c0-1.3163-.5575-1.9822-1.657-1.9822-1.13,0-1.7963.6814-1.9976,2.06l3.6546-.0774Zm8.4243,4.1192h-1.2233c.0619-.8981.0929-1.9357.0929-3.0971h-3.376c0,1.053.031,2.0906.1084,3.0971h-1.2233c.0619-.9446.1084-2.0131.1084-3.221a19.3836,19.3836,0,0,0-.2478-3.4224l1.3627-.1858c-.0309.3407-.0619,1.2853-.0929,2.8184h3.3605a18.6416,18.6416,0,0,0-.2323-2.6326l1.3627-.1858c-.0619.9756-.0929,2.1835-.0929,3.6082-.0155,1.13.031,2.2145.0929,3.221Zm6.9842-6.6744-.0465,1.0531a22.2009,22.2009,0,0,0-2.2454-.1084c-.0155.65-.031,1.5021-.031,2.54,0,1.1305.031,2.199.1084,3.2211h-1.2853c.0619-.9446.0929-2.0132.0929-3.2211,0-1.0065-.0155-1.8583-.062-2.54-.7278,0-1.4866.0309-2.2764.1084l.0465-1.0531Zm7,6.6744h-1.2544c.062-.8052.1084-1.8738.1084-3.221,0-.3872.031-.9447.062-1.7035h-.062a12.824,12.824,0,0,1-1.92,2.5552,8.143,8.143,0,0,0-1.688,2.3693h-1.0066c.062-.9446.093-2.0131.093-3.221a19.3836,19.3836,0,0,0-.2478-3.4224l1.3937-.1858c-.0619.8672-.0929,1.9667-.0929,3.3139,0,.48-.0155,1.0686-.0465,1.7964h.062a16.1269,16.1269,0,0,1,1.92-2.5552,7.5909,7.5909,0,0,0,1.6415-2.3848l1.0066-.1858c-.0619.9756-.0774,2.1835-.0774,3.6082,0,1.1459.031,2.23.1084,3.2365Zm10.6233,0h-1.2234c.0619-.8981.0929-1.9357.0929-3.0971H175.96c0,1.053.031,2.0906.1084,3.0971h-1.2234c.062-.9446.1084-2.0131.1084-3.221a19.374,19.374,0,0,0-.2478-3.4224l1.3628-.1858c-.031.3407-.062,1.2853-.0929,2.8184h3.36a18.6416,18.6416,0,0,0-.2323-2.6326l1.3628-.1858c-.062.9756-.093,2.1835-.093,3.6082-.0154,1.13.0155,2.2145.093,3.221Zm7.1545,0-1.1.0465a2.4763,2.4763,0,0,1-.0775-.65h-.0774a3.3547,3.3547,0,0,1-2.3539.79,2.09,2.09,0,0,1-1.3937-.48,1.66,1.66,0,0,1-.5884-1.3627,2.0793,2.0793,0,0,1,.9136-1.75,6.5,6.5,0,0,1,3.4069-.6969,2.9852,2.9852,0,0,0,.0155-.3872,1.285,1.285,0,0,0-.4646-1.1614,2.7464,2.7464,0,0,0-1.3937-.2942,8.4961,8.4961,0,0,0-2.168.2787l.1239-.9756a8.83,8.83,0,0,1,2.4312-.31,3.166,3.166,0,0,1,1.9358.511,2.0848,2.0848,0,0,1,.6813,1.7654c0,.2168-.0154.6194-.0309,1.2079-.0155.573-.031.96-.031,1.1614a10.4549,10.4549,0,0,0,.17,2.3074Zm-1.2544-1.3627c-.0155-.7124-.031-1.3628-.031-1.92a7.4376,7.4376,0,0,0-2.0131.2013,1.3709,1.3709,0,0,0-1.1615,1.3473c0,.6349.4491.96,1.3473.96a2.7563,2.7563,0,0,0,1.8583-.5884Zm11.8,1.3627h-1.2234c.062-.8981.093-1.9357.093-3.0971H193.66c0,1.053.031,2.0906.1084,3.0971h-1.2233c.0619-.9446.1084-2.0131.1084-3.221a19.3836,19.3836,0,0,0-.2478-3.4224l1.3627-.1858c-.0309.3407-.0619,1.2853-.0929,2.8184h3.36a18.6434,18.6434,0,0,0-.2322-2.6326l1.3627-.1858c-.0619.9756-.0929,2.1835-.0929,3.6082-.0155,1.13.0155,2.2145.0929,3.221Zm7.6346-4.1192c0,.2013-.0155.4646-.031.8207l-4.8316.0775a2.5521,2.5521,0,0,0,.79,1.7189,2.6354,2.6354,0,0,0,1.92.6969,7.5024,7.5024,0,0,0,1.9977-.2633l-.1239.9911a5.5965,5.5965,0,0,1-1.9977.2788,3.6763,3.6763,0,0,1-2.7874-1.0066,3.3907,3.3907,0,0,1-.96-2.4313,4.1376,4.1376,0,0,1,.8827-2.6481,2.8369,2.8369,0,0,1,2.3539-1.115,2.5521,2.5521,0,0,1,2.06.8053,2.929,2.929,0,0,1,.7279,2.0751Zm-1.177,0c0-1.3163-.5575-1.9822-1.657-1.9822-1.13,0-1.7963.6814-1.9976,2.06l3.6546-.0774Zm9.6013,3.2211c0,.2477-.062.8207-.17,1.7189a19.6481,19.6481,0,0,0-.17,2.0906h-.8362c0-.5885,0-1.58-.0155-2.9578-.635-.031-1.5331-.0465-2.71-.0465-.7433,0-1.5485.0155-2.4.0465a21.9219,21.9219,0,0,0-.3252,2.9578h-.8362c0-.4181,0-1.0221-.0155-1.7964,0-.7743-.0155-1.4557-.0155-2.0286h.6969a28.9865,28.9865,0,0,1,2.4468-5.7917h2.0286l.9447-.1394c-.062.9756-.093,2.1835-.093,3.6082,0,.573.0465,1.3473.1239,2.3229h1.3473Zm-2.3848,0c-.0465-.9137-.0775-1.688-.0775-2.3229,0-.9447-.0155-1.7964-.0619-2.5862h-1.2234c-.2942.5266-.6349,1.2234-1.0375,2.1061a16.1713,16.1713,0,0,0-.9757,2.803Zm9.23-1.0686a1.6686,1.6686,0,0,1-.8053,1.5022,4.2886,4.2886,0,0,1-2.2919.5265c-.5265,0-1.3317-.0155-2.4312-.0465.0619-.65.0929-1.7189.0929-3.2365a19.1709,19.1709,0,0,0-.2478-3.4534h.7278c.6969-.0464,1.4092-.0774,2.1371-.0774,1.6725,0,2.5087.511,2.5087,1.5486a1.5531,1.5531,0,0,1-1.0221,1.5641v.0774a1.4531,1.4531,0,0,1,1.3318,1.595Zm-1.13.062a.9547.9547,0,0,0-.6659-.9756,3.7355,3.7355,0,0,0-1.27-.1549c-.4336,0-.8827.0155-1.3163.0465,0,.8362,0,1.5331.0155,2.0906a11.2316,11.2316,0,0,0,1.5331.0774c1.1305,0,1.7035-.3562,1.7035-1.084Zm-.2478-3.0043c0-.65-.48-.9911-1.44-.9911-.4646,0-1.0066.0155-1.626.062.031.6813.0619,1.3318.0619,1.9667.5885.0155,1.084.0309,1.4867.0309a1.8511,1.8511,0,0,0,1.13-.31.9047.9047,0,0,0,.3872-.7588Zm8.8114,4.909H227.249c.0619-.8052.1084-1.8738.1084-3.221,0-.3872.031-.9447.0619-1.7035h-.0619a12.8221,12.8221,0,0,1-1.92,2.5552,8.1438,8.1438,0,0,0-1.6879,2.3693h-1.0066c.062-.9446.0929-2.0131.0929-3.221a19.3846,19.3846,0,0,0-.2477-3.4224l1.3937-.1858c-.062.8672-.0929,1.9667-.0929,3.3139,0,.48-.0155,1.0686-.0465,1.7964h.0619a16.1309,16.1309,0,0,1,1.92-2.5552,7.5909,7.5909,0,0,0,1.6415-2.3848l1.0066-.1858c-.062.9756-.0775,2.1835-.0775,3.6082,0,1.1459.0465,2.23.1084,3.2365Zm10.7008,0h-1.27c-.0309-.0619-.0929-.1858-.17-.3716a5.709,5.709,0,0,0-.96-2.0442,1.7017,1.7017,0,0,0-1.3473-.5729,1.9723,1.9723,0,0,0-.31.0155c0,1.084.031,2.0751.1084,2.9578H233.97c.0619-.8982.1084-1.8738.1084-2.9578a3.24,3.24,0,0,0-.3717-.0155,1.7013,1.7013,0,0,0-1.3472.5729,5.5765,5.5765,0,0,0-.96,2.0442,2.4012,2.4012,0,0,1-.17.3716h-1.2234c.062-.1238.1549-.3871.31-.7743a7.0987,7.0987,0,0,1,.8672-1.8428,2.0041,2.0041,0,0,1,1.115-.8207v-.062c-.6659-.2477-1.27-1.115-1.7963-2.5861-.062-.17-.1394-.3717-.2478-.604h1.1924a1.602,1.602,0,0,1,.1549.3252c.4181,1.7035,1.1459,2.54,2.199,2.54a1.42,1.42,0,0,0,.2787-.0155c0-1.1-.031-2.0441-.0929-2.8648H235.24c-.0619.8052-.0929,1.7653-.0929,2.8648a1.9723,1.9723,0,0,0,.31.0155c1.0376,0,1.7809-.8517,2.199-2.54a1.0385,1.0385,0,0,1,.1549-.3252h1.1614c-.0464.1084-.1239.31-.2478.604-.5265,1.4711-1.13,2.3384-1.7963,2.5861v.062a2.0784,2.0784,0,0,1,1.115.8207,7.6454,7.6454,0,0,1,.8672,1.8428c.0774.2478.1858.5111.2942.7743Zm7.2474,0h-1.2544c.0619-.8052.1084-1.8738.1084-3.221,0-.3872.031-.9447.0619-1.7035h-.0619a12.824,12.824,0,0,1-1.92,2.5552,8.143,8.143,0,0,0-1.688,2.3693h-1.0066c.062-.9446.0929-2.0131.0929-3.221a19.3846,19.3846,0,0,0-.2477-3.4224l1.3937-.1858c-.0619.8672-.0929,1.9667-.0929,3.3139,0,.48-.0155,1.0686-.0465,1.7964h.062a16.1269,16.1269,0,0,1,1.92-2.5552,7.5909,7.5909,0,0,0,1.6415-2.3848l1.0066-.1858c-.062.9756-.0775,2.1835-.0775,3.6082,0,1.1459.0465,2.23.1085,3.2365Zm9.8335,0h-1.1924c0-.8827,0-1.9822-.0155-3.283s-.0155-2.0906-.0155-2.3693h-.0929c-.1239.3562-.3871,1.0221-.8053,1.9977a20.2344,20.2344,0,0,0-1.5331,3.6546h-.96a16.2819,16.2819,0,0,0-1.2389-3.5772c-.2013-.4646-.449-1.1614-.7588-2.0906h-.0774c0,.31-.031,1.2079-.1084,2.71-.062,1.5022-.1084,2.4933-.1084,2.9578H248.31c0-.1393.0929-1.13.2633-3.0042.17-1.8583.2632-3.0972.2632-3.6857h1.719a9.2593,9.2593,0,0,0,.8982,2.9888,14.8477,14.8477,0,0,1,.8981,2.4313h.0775a13.6832,13.6832,0,0,1,.9756-2.4158,8.6905,8.6905,0,0,0,.9756-3.0043h1.6725c0,.604.0464,1.8119.1239,3.6392.0774,1.8428.1084,2.8494.1084,3.0507Zm7.6345,0h-1.2543c.0619-.8052.1084-1.8738.1084-3.221,0-.3872.031-.9447.0619-1.7035h-.0619a12.8221,12.8221,0,0,1-1.92,2.5552,8.1438,8.1438,0,0,0-1.6879,2.3693h-1.0066c.0619-.9446.0929-2.0131.0929-3.221a19.374,19.374,0,0,0-.2478-3.4224l1.3938-.1858c-.062.8672-.0929,1.9667-.0929,3.3139,0,.48-.0155,1.0686-.0465,1.7964h.0619a16.1238,16.1238,0,0,1,1.92-2.5552,7.5909,7.5909,0,0,0,1.6415-2.3848l1.0066-.1858c-.062.9756-.0775,2.1835-.0775,3.6082,0,1.1459.0465,2.23.1084,3.2365Zm10.7472,0h-1.2543c.0619-.8052.1084-1.8738.1084-3.221,0-.3872.0309-.9447.0619-1.7035h-.0619a12.8221,12.8221,0,0,1-1.92,2.5552,8.1415,8.1415,0,0,0-1.6879,2.3693H268.906c.0619-.9446.0929-2.0131.0929-3.221a19.374,19.374,0,0,0-.2478-3.4224l1.3937-.1858c-.0619.8672-.0929,1.9667-.0929,3.3139,0,.48-.0155,1.0686-.0464,1.7964h.0619a16.1238,16.1238,0,0,1,1.92-2.5552,7.5909,7.5909,0,0,0,1.6415-2.3848l1.0065-.1858c-.0619.9756-.0774,2.1835-.0774,3.6082.0155,1.1459.0465,2.23.1084,3.2365Zm9.849,0h-1.1924c0-.8827,0-1.9822-.0155-3.283s-.0155-2.0906-.0155-2.3693h-.0929c-.1239.3562-.3871,1.0221-.8052,1.9977a20.2257,20.2257,0,0,0-1.5331,3.6546h-.96a16.2848,16.2848,0,0,0-1.2388-3.5772c-.2014-.4646-.4491-1.1614-.7589-2.0906h-.0774c0,.31-.031,1.2079-.1084,2.71-.0619,1.5022-.1084,2.4933-.1084,2.9578h-1.0685c0-.1393.0929-1.13.2632-3.0042.17-1.8583.2633-3.0972.2633-3.6857h1.7189a9.2593,9.2593,0,0,0,.8982,2.9888,14.8428,14.8428,0,0,1,.8982,2.4313h.0774a13.6832,13.6832,0,0,1,.9756-2.4158,8.6905,8.6905,0,0,0,.9756-3.0043h1.6725c0,.604.0465,1.8119.1239,3.6392.062,1.8428.1084,2.8494.1084,3.0507Zm8.3-3.5462a3.74,3.74,0,0,1-1.0375,2.8184,3.41,3.41,0,0,1-2.4313,1.0066,3.1091,3.1091,0,0,1-2.2454-.8982,3.2823,3.2823,0,0,1-.9447-2.5242,3.7772,3.7772,0,0,1,1.0376-2.8339,3.3715,3.3715,0,0,1,2.4467-1.0221,3.1093,3.1093,0,0,1,2.2455.8982,3.5158,3.5158,0,0,1,.9291,2.5552Zm-1.2233.2477a3.5063,3.5063,0,0,0-.5575-1.9512,1.9057,1.9057,0,0,0-3.1436-.0464,3.3272,3.3272,0,0,0-.5421,1.8738,3.4355,3.4355,0,0,0,.5575,1.9512,1.8911,1.8911,0,0,0,3.1282.0464,3.2212,3.2212,0,0,0,.5575-1.8738Zm7.96-3.3759-.0464,1.0531a22.2042,22.2042,0,0,0-2.2455-.1084c-.0155.65-.031,1.5021-.031,2.54,0,1.1305.031,2.199.1084,3.2211h-1.2853c.0619-.9446.0929-2.0132.0929-3.2211,0-1.0065-.0155-1.8583-.0619-2.54-.7278,0-1.4867.0309-2.2764.1084l.0464-1.0531Zm7,6.6744h-1.2543c.0619-.8052.1084-1.8738.1084-3.221,0-.3872.031-.9447.0619-1.7035h-.0619a12.8221,12.8221,0,0,1-1.92,2.5552,8.1415,8.1415,0,0,0-1.6879,2.3693h-1.0066c.0619-.9446.0929-2.0131.0929-3.221a19.374,19.374,0,0,0-.2478-3.4224l1.3938-.1858c-.062.8672-.093,1.9667-.093,3.3139,0,.48-.0154,1.0686-.0464,1.7964h.0619a16.1238,16.1238,0,0,1,1.92-2.5552,7.5909,7.5909,0,0,0,1.6415-2.3848l1.0066-.1858c-.062.9756-.0775,2.1835-.0775,3.6082,0,1.1459.031,2.23.1084,3.2365Z" transform="translate(-2.503 -1.0712)"/><path class="cls-5" d="M70.4391,18.88h-1.626c.0619-1.657.0929-3.5927.0929-5.8227,0-1.7654.0465-3.2985.1549-4.5993H63.8421c.0929,1.2389.1549,2.7255.1549,4.4444,0,2.261.0309,4.2432.0929,5.9776h-1.626c.0774-2.3384.1084-4.3825.1084-6.1324,0-1.657-.0465-3.4689-.1084-5.42H70.47c-.062,1.8893-.1084,3.6857-.1084,5.42-.031,1.7808,0,3.825.0774,6.1324ZM82.27,10.1921a3.36,3.36,0,0,1-1.5331,3.02,7.4716,7.4716,0,0,1-4.1192,1.0066c-.2168,0-.4027,0-.573-.0155,0,1.2854.0464,2.8494.1393,4.6768H74.4809c.0929-1.688.1394-3.7011.1394-6.07q0-3.0429-.1394-5.482h1.27c.1394,0,.5266,0,1.1615-.031.6349-.0154,1.1924-.0309,1.6415-.0309a4.3663,4.3663,0,0,1,2.71.7743A2.596,2.596,0,0,1,82.27,10.1921Zm-1.4866.511q0-2.2764-3.1127-2.2764a11.6119,11.6119,0,0,0-1.7034.1394c.0464.96.0619,2.4622.0619,4.5064.2013.0155.4646.0155.7588.0155,2.6636,0,3.9954-.8053,3.9954-2.3849Zm14.51,2.2145a6.3,6.3,0,0,1-1.6725,4.5838A5.2634,5.2634,0,0,1,89.75,19.22a5.0773,5.0773,0,0,1-3.7012-1.58,5.6873,5.6873,0,0,1-1.595-4.2586,6.2639,6.2639,0,0,1,1.6725-4.5993,5.3051,5.3051,0,0,1,3.8714-1.7035,5.0772,5.0772,0,0,1,3.7012,1.58,5.7112,5.7112,0,0,1,1.595,4.2586Zm-1.5795.2168a4.8972,4.8972,0,0,0-1.2079-3.5462,3.7306,3.7306,0,0,0-2.772-1.2544A3.33,3.33,0,0,0,87.1483,9.65a5.2267,5.2267,0,0,0-1.13,3.5308,4.8968,4.8968,0,0,0,1.2079,3.5462,3.7549,3.7549,0,0,0,2.7719,1.2544A3.3479,3.3479,0,0,0,92.5839,16.65a5.2394,5.2394,0,0,0,1.13-3.5153Zm14.9748-.6968a4.3534,4.3534,0,0,1-1.1924,3.0971,5.4,5.4,0,0,1-3.6857,1.4712c0,.4491.0155,1.0685.062,1.8583H102.309c.031-.65.062-1.27.062-1.8583a5.6985,5.6985,0,0,1-3.7166-1.2544,3.7934,3.7934,0,0,1-1.1615-2.8494A4.3794,4.3794,0,0,1,98.6853,9.805a5.4,5.4,0,0,1,3.6857-1.4712,14.2114,14.2114,0,0,0-.062-1.4557h1.5641c-.031.3872-.0465.8827-.062,1.4557a5.699,5.699,0,0,1,3.7167,1.2544,3.8762,3.8762,0,0,1,1.1614,2.8494Zm-1.44.2787c0-1.9822-1.1614-3.0972-3.4843-3.33-.031,1.0531-.0465,2.0906-.0465,3.0972q0,1.626.0465,3.4843,3.4843-.3019,3.4843-3.252Zm-4.8316.1394c0-1.084-.0155-2.2455-.031-3.4843q-3.4842.3019-3.4843,3.252c0,1.9822,1.1615,3.0972,3.4843,3.3294.0155-1.053.031-2.0751.031-3.0971Zm16.43,4.6767-.0619,1.3318h-7.1545c.0774-1.8428.1239-3.856.1239-6.0705,0-2.0751-.0465-3.9024-.1239-5.482h6.7054l-.0775,1.3163c-1.6105-.0464-3.3294-.0929-5.1567-.0929.0309.9137.0619,2.1526.0619,3.7166,1.5641,0,2.9733-.0309,4.1967-.1084V13.46c-1.3163-.0619-2.71-.0774-4.1967-.0774,0,1.5176.031,2.9423.0774,4.2741,1.9667.0155,3.825-.031,5.6059-.1239Zm10.7937-.0619-.1084,1.3163a8.3,8.3,0,0,1-2.3849.3252,5.9215,5.9215,0,0,1-4.5838-1.6725,5.8294,5.8294,0,0,1-1.5331-4.0883,6.2226,6.2226,0,0,1,1.7035-4.367,5.996,5.996,0,0,1,4.5993-1.8273,6.6913,6.6913,0,0,1,1.6879.2323l-.2478,1.4092a6.08,6.08,0,0,0-1.8273-.3252,3.9749,3.9749,0,0,0-3.252,1.3318,4.8776,4.8776,0,0,0-1.115,3.252,4.8084,4.8084,0,0,0,1.27,3.36,4.56,4.56,0,0,0,3.5308,1.4092,8.3476,8.3476,0,0,0,2.261-.3561ZM141.4573,18.88h-1.688c.0775-1.0995.1239-2.741.1239-4.94,0-1.0066.0155-2.2764.062-3.8405h-.093a25.6693,25.6693,0,0,1-3.3139,4.5373c-1.8738,2.261-2.803,3.67-2.803,4.2277h-1.2389c.093-1.5641.1549-3.3914.1549-5.482,0-2.1216-.0465-4.15-.1549-6.07h1.6725c-.0774,1.5951-.1239,3.3914-.1239,5.3736,0,1.0221-.0309,2.1526-.0774,3.3914h.0929a30.2986,30.2986,0,0,1,3.4069-4.5218c1.8273-2.199,2.7565-3.6082,2.7565-4.2587h1.2543c-.0929,1.92-.1393,3.9489-.1393,6.0705-.0155,2.1216.031,3.9489.1084,5.513Zm14.1076-5.9621a6.3,6.3,0,0,1-1.6725,4.5838,5.2634,5.2634,0,0,1-3.8714,1.719,5.0772,5.0772,0,0,1-3.7012-1.58,5.6873,5.6873,0,0,1-1.595-4.2586,6.2639,6.2639,0,0,1,1.6725-4.5993,5.3051,5.3051,0,0,1,3.8714-1.7035,5.0772,5.0772,0,0,1,3.7012,1.58,5.7112,5.7112,0,0,1,1.595,4.2586Zm-1.5795.2168a4.8972,4.8972,0,0,0-1.2079-3.5462,3.7306,3.7306,0,0,0-2.772-1.2544A3.33,3.33,0,0,0,147.4193,9.65a5.2267,5.2267,0,0,0-1.13,3.5308,4.8968,4.8968,0,0,0,1.2079,3.5462,3.7549,3.7549,0,0,0,2.7719,1.2544,3.348,3.348,0,0,0,2.5862-1.3318,5.2394,5.2394,0,0,0,1.1305-3.5153ZM167.3342,18.88h-1.688c.062-2.0442.0929-3.887.0929-5.4975h-5.3116c0,1.3163.0309,3.1436.0929,5.4975h-1.688c.0775-2.1526.1239-4.1812.1239-6.07,0-1.9822-.0464-3.8095-.1239-5.482h1.688c-.062,1.688-.1084,3.345-.1084,4.94H165.77c0-1.2853-.031-2.9268-.1084-4.94H167.35q-.1394,2.4623-.1393,5.482c-.0155,2.199.031,4.2277.1239,6.07Zm13.4727,0h-1.8738a19.3953,19.3953,0,0,0-1.115-3.7321h-5.1258a19.0513,19.0513,0,0,0-1.0995,3.7321h-1.7964a59.3645,59.3645,0,0,1,2.2919-5.6679A41.3165,41.3165,0,0,0,174.38,7.3272h2.06a42.513,42.513,0,0,0,2.1835,5.7917,44.9976,44.9976,0,0,1,2.1835,5.7608Zm-3.3914-4.8936a57.876,57.876,0,0,1-2.0906-5.5439h-.0929c0,.1858-.7124,2.0286-2.1526,5.5439ZM191.105,7.3272c-.0775,1.8893-.1084,3.6857-.1084,5.42,0,2.168.0309,4.2121.1084,6.1324h-1.626c.0619-1.657.0929-3.5927.0929-5.8227,0-1.7654-.0155-3.2985-.031-4.5993h-2.1835a10.8356,10.8356,0,0,1-.2478,1.084c-.1239.4491-.2632.9446-.4336,1.4866s-.3716,1.115-.6039,1.7035c-.2168.6039-.4646,1.1924-.7279,1.7809s-.542,1.1459-.8207,1.6879a14.3475,14.3475,0,0,1-.8827,1.4247,5.9169,5.9169,0,0,1-.9137,1.0066,1.78,1.78,0,0,1-.9291.4181l-.0929-1.595a1.1841,1.1841,0,0,0,.542-.3872,6.614,6.614,0,0,0,.65-.8672c.2323-.3562.4645-.7588.7123-1.2234s.48-.96.7124-1.4866.4645-1.0685.6813-1.61c.2168-.5575.4182-1.1.604-1.6415.17-.542.3252-1.0531.4491-1.5486s.2168-.9447.2787-1.3318h4.77Zm11.2582,10.2052-.0619,1.3318h-7.1545c.0774-1.8428.1239-3.856.1239-6.0705,0-2.0751-.0465-3.9024-.1239-5.482h6.7054l-.0775,1.3163c-1.626-.0774-3.3449-.1084-5.1722-.1084.0309.9137.0619,2.1526.0619,3.7166,1.5641,0,2.9733-.0309,4.1967-.1084v1.3163c-1.3163-.0619-2.71-.0774-4.1967-.0774,0,1.5176.031,2.9423.0774,4.2741,1.9667.031,3.84-.0155,5.6214-.1084ZM213.8227,18.88h-1.6879c.0619-2.0442.0929-3.887.0929-5.4975h-5.3116c0,1.3163.0309,3.1436.0929,5.4975h-1.688c.0775-2.1526.1239-4.1812.1239-6.07,0-1.9822-.0464-3.8095-.1239-5.482h1.688c-.062,1.688-.1084,3.345-.1084,4.94h5.3581c0-1.2853-.031-2.9268-.1084-4.94h1.6879q-.1394,2.4623-.1393,5.482c0,2.199.0464,4.2277.1238,6.07Zm15.78-8.6876a3.36,3.36,0,0,1-1.5331,3.02,7.4714,7.4714,0,0,1-4.1192,1.0066c-.2168,0-.4026,0-.573-.0155,0,1.2854.0465,2.8494.1394,4.6768h-1.7035c.0929-1.688.1394-3.7011.1394-6.07q0-3.0429-.1394-5.482h1.27c.1394,0,.5265,0,1.1614-.031.635-.0154,1.1924-.0309,1.6415-.0309a4.3667,4.3667,0,0,1,2.71.7743,2.596,2.596,0,0,1,1.0065,2.1525Zm-1.4866.511q0-2.2764-3.1127-2.2764a11.6119,11.6119,0,0,0-1.7034.1394c.0464.96.0619,2.4622.0619,4.5064.2013.0155.4646.0155.7588.0155,2.6636,0,3.9954-.8053,3.9954-2.3849Zm11.6609,6.8293-.062,1.3318h-7.1544c.0774-1.8428.1238-3.856.1238-6.0705,0-2.0751-.0464-3.9024-.1238-5.482h6.7053l-.0774,1.3163c-1.626-.0774-3.3449-.1084-5.1723-.1084.031.9137.062,2.1526.062,3.7166,1.564,0,2.9732-.0309,4.1966-.1084v1.3163c-1.3163-.0619-2.71-.0774-4.1966-.0774,0,1.5176.0309,2.9423.0774,4.2741,1.9822.031,3.84-.0155,5.6214-.1084Zm9.7715-10.2052-.0619,1.3937c-2.0906-.0619-3.8715-.0929-5.3116-.0929.0619,1.1615.0929,2.741.0929,4.77,0,2.4622.0309,4.29.1084,5.482h-1.657c.0619-1.4247.1084-3.2521.1084-5.482,0-2.5862-.031-4.5993-.1084-6.07Zm11.63,11.5525h-1.6879c.0774-1.0995.1239-2.741.1239-4.94,0-1.0066.0154-2.2764.0619-3.8405h-.0929a25.6666,25.6666,0,0,1-3.314,4.5373c-1.8738,2.261-2.8029,3.67-2.8029,4.2277h-1.2389c.0929-1.5641.1549-3.3914.1549-5.482,0-2.1216-.0465-4.15-.1549-6.07H253.9c-.0775,1.5951-.1239,3.3914-.1239,5.3736,0,1.0221-.031,2.1526-.0774,3.3914h.0929a30.2829,30.2829,0,0,1,3.4069-4.5218c1.8273-2.199,2.7564-3.6082,2.7564-4.2587H261.21c-.0929,1.92-.1394,3.9489-.1394,6.0705-.0155,2.1216.031,3.9489.1084,5.513Zm11.8777-1.4092-.1084,1.3163a8.3,8.3,0,0,1-2.3848.3252,5.9216,5.9216,0,0,1-4.5839-1.6725,5.8294,5.8294,0,0,1-1.5331-4.0883,6.2226,6.2226,0,0,1,1.7035-4.367,5.996,5.996,0,0,1,4.5993-1.8273,6.6913,6.6913,0,0,1,1.6879.2323l-.2477,1.4092a6.0807,6.0807,0,0,0-1.8274-.3252A3.9751,3.9751,0,0,0,267.11,9.805a4.8776,4.8776,0,0,0-1.115,3.252,4.808,4.808,0,0,0,1.27,3.36,4.56,4.56,0,0,0,3.5307,1.4092,8.1788,8.1788,0,0,0,2.261-.3561ZM283.3078,7.3272l-.0464,1.2544q-1.7654-.093-3.6237-.0929c-.0155,1.13-.0155,2.5706-.0155,4.3205,0,1.9357.031,3.9489.0929,6.07h-1.626c.0619-2.0132.1084-4.0418.1084-6.07,0-1.7189-.0155-3.1591-.0619-4.3205-.8827,0-2.1061.0309-3.6857.1084l.0465-1.27Zm12.4816,7.7584a3.3086,3.3086,0,0,1-1.4247,2.803,6.448,6.448,0,0,1-3.8714,1.053c-.5265,0-1.3473-.0155-2.4313-.0619.0774-1.8428.1239-3.856.1239-6.07,0-1.7654.0309-3.2056.1084-4.3205-.8672,0-2.1526.0309-3.887.1084l.0465-1.27H289.75c-.0465.5111-.0775,2.0132-.1394,4.4754.3717-.0309.7588-.0464,1.13-.0464,3.376,0,5.0484,1.115,5.0484,3.3294Zm-1.5021.1394c0-1.5176-1.2543-2.2764-3.7785-2.2764-.2788,0-.573.0155-.8982.0464,0,1.58.0155,3.1127.0619,4.5993a4.64,4.64,0,0,0,.8827.0775,4.9932,4.9932,0,0,0,2.9114-.6349,2.116,2.116,0,0,0,.8207-1.8119Zm12.2648-5.0329a3.36,3.36,0,0,1-1.5331,3.02A7.4716,7.4716,0,0,1,300.9,14.2184c-.2168,0-.4027,0-.573-.0155,0,1.2854.0465,2.8494.1394,4.6768h-1.7035c.0929-1.688.1394-3.7011.1394-6.07q0-3.0429-.1394-5.482h1.27c.1393,0,.5265,0,1.1614-.031.6349-.0154,1.1924-.0309,1.6415-.0309a4.3661,4.3661,0,0,1,2.71.7743,2.596,2.596,0,0,1,1.0066,2.1525Zm-1.4866.511q0-2.2764-3.1127-2.2764a11.6119,11.6119,0,0,0-1.7034.1394c.0464.96.0619,2.4622.0619,4.5064.2013.0155.4646.0155.7588.0155,2.6636,0,3.9954-.8053,3.9954-2.3849Z" transform="translate(-2.503 -1.0712)"/></svg>